<svg viewBox="0 0 197.909 233.311" xmlns="http://www.w3.org/2000/svg" xmlns:xlink="http://www.w3.org/1999/xlink">
  <defs>
    <linearGradient id="gradient-1">
      <stop offset="0" style="stop-color: rgb(255, 0, 0);"></stop>
      <stop offset="0.136" style="stop-color: rgb(255, 222, 0);"></stop>
      <stop offset="0.271" style="stop-color: rgb(99, 255, 0);"></stop>
      <stop offset="0.408" style="stop-color: rgb(0, 255, 239);"></stop>
      <stop offset="0.543" style="stop-color: rgb(25, 0, 255);"></stop>
      <stop offset="0.679" style="stop-color: rgb(255, 0, 239);"></stop>
      <stop offset="0.815" style="stop-color: rgb(255, 0, 0);"></stop>
      <stop offset="0.951" style="stop-color: rgb(255, 239, 0);"></stop>
    </linearGradient>
    <linearGradient id="gradient-1-0" gradientUnits="userSpaceOnUse" x1="240.357" y1="308.877" x2="240.357" y2="345.489" gradientTransform="matrix(1, 0.000001, -0.000001, 1, -3.511226, -72.703074)" xlink:href="#gradient-1"></linearGradient>
  </defs>
  <g transform="matrix(1, 0, 0, 1, -162.375244, -106.325264)">
    <path d="M 304.791 204.571 C 306.716 205.307 326.243 214.091 327.084 215.233 C 327.316 215.548 342.466 232.483 342.925 233.883 C 344.17 235.366 349.529 242.114 350.07 243.757 C 350.67 245.585 352.584 255.056 352.839 256.773 C 353.347 260.201 353.761 264.947 353.115 267.851 C 353.087 267.978 352.525 274.074 351.731 275.882 C 350.972 277.608 346.186 281.987 344.673 282.662 C 344.672 282.663 336.818 289.468 333.038 290.974 C 330.095 292.147 326.851 292.473 324.296 292.177 C 320.65 292.984 313.929 294.094 310.404 293.814 C 308.616 294.005 306.356 294.023 304.872 293.825 C 303.225 293.605 302.311 293.271 300.718 292.44 C 299.785 291.954 287.052 287.628 285.129 286.544 C 282.94 285.311 279.971 283.166 278.621 281.143 C 277.44 279.375 276.756 277.193 276.959 275.328 C 277.163 273.453 278.545 271.104 279.867 269.928 C 281.058 268.867 282.81 268.352 284.298 268.266 C 285.765 268.181 287.281 268.667 288.729 269.374 C 290.335 270.158 308.094 276.634 310.793 277.899 C 313.765 277.221 317.089 276.801 319.191 276.574 C 321.882 276.283 323.946 276.276 325.779 276.832 C 325.989 276.759 331.069 272.061 333.315 270.758 C 333.732 270.517 336.129 258.266 336.301 254.048 C 335.706 251.99 333.79 248.364 333.177 247.634 C 332.46 246.782 313.974 224.923 308.945 224.234 C 304.958 223.688 302.732 222.294 300.36 220.91 C 298.273 219.693 296.368 218.319 295.236 216.618 C 294.169 215.013 293.387 212.882 293.575 211.079 C 293.767 209.234 295.162 206.856 296.483 205.68 C 297.674 204.619 299.48 204.181 300.914 204.018 C 302.243 203.866 303.332 204.015 304.791 204.571 Z" style="fill: rgb(255, 255, 255); transform-box: fill-box; transform-origin: 50% 50%; stroke: rgb(183, 183, 183); stroke-width: 9px;" transform="matrix(0.997564, -0.069756, 0.069756, 0.997564, 0, -0.000001)"></path>
    <path d="M 291.027 278.818 C 290.447 292.074 289.806 308.136 287.767 314.68 C 286.705 318.086 285.449 319.404 283.808 320.501 C 282.354 321.474 280.362 321.785 278.685 321.433 C 276.864 321.05 274.475 319.794 273.329 317.94 C 271.991 315.775 271.966 313.017 271.932 308.625 C 271.876 301.477 274.602 288.962 275.192 276.955 C 275.893 262.699 274.066 235.346 275.192 228.053 C 274.45 222.147 273.615 209.678 274.26 205.233 C 274.607 202.85 275.047 201.924 276.124 200.808 C 277.253 199.636 279.163 198.577 281.014 198.479 C 283.131 198.367 286.733 199.489 288.233 200.808 C 289.482 201.906 289.579 202.683 290.096 205.233 C 291.168 210.529 293.242 229.253 291.958 235.039 C 291.853 235.516 291.728 235.955 291.587 236.36 C 291.937 248.078 291.536 267.204 291.027 278.818 Z" style="fill: rgb(255, 255, 255); transform-box: fill-box; transform-origin: 50% 50%; stroke: rgb(183, 183, 183); stroke-width: 9px;" transform="matrix(0.97437, 0.22495, -0.22495, 0.97437, 0.000002, 0.000002)"></path>
    <path d="M 263.441 316.098 C 265.132 315.862 267.023 316.113 268.426 316.652 C 269.702 317.143 270.825 317.746 271.611 319.006 C 272.619 320.624 271.677 321.937 273.753 321.176 C 275.225 320.636 274.571 324.494 273.273 325.831 C 272.156 326.98 271.041 328.171 269.711 328.58 C 268.452 328.967 266.96 328.365 264.651 327.829 C 259.746 326.691 257.819 332.588 256.656 331.468 C 255.785 330.63 255.559 329.825 255.272 328.699 C 254.924 327.335 254.615 325.374 254.994 323.714 C 255.407 321.912 256.482 319.584 257.902 318.314 C 259.307 317.057 261.628 316.353 263.441 316.098 Z" style="fill: rgb(255, 255, 255); transform-box: fill-box; transform-origin: 50% 50%; stroke: rgb(183, 183, 183); stroke-width: 9px;" transform="matrix(-0.29237, 0.956305, -0.956305, -0.29237, -0.000001, 0.000011)"></path>
  </g>
  <g transform="matrix(1, 0, 0, 1, -56.870506, -84.288338)">
    <path d="M 56.905 84.891 C 56.905 84.891 158.212 83.535 161.871 84.891 L 223.162 150.122 C 224.409 153.094 225.341 267.747 224.421 271.201 C 223.562 274.423 221.575 277.672 219.443 279.693 C 217.495 281.54 214.749 282.644 212.415 283.207 C 210.26 283.726 208.402 283.754 205.973 283.207 C 202.907 282.517 199.07 279.197 195.431 278.522 C 191.843 277.855 189.549 278.128 184.304 279.107 C 175.428 280.765 152.47 289.48 144.48 290.82 C 140.303 291.521 138.891 291.482 136.281 290.82 C 133.614 290.144 131.14 287.364 128.667 286.721 C 126.469 286.149 124.937 286.086 122.225 286.721 C 118.199 287.664 111.141 292.693 106.412 293.749 C 102.534 294.614 100.155 294.066 95.871 293.749 C 90.195 293.329 81.056 293.292 74.787 290.82 C 68.704 288.422 61.878 282.959 58.682 279.4 C 56.471 276.939 56.905 84.891 56.905 84.891 Z" style="fill: rgb(255, 255, 255); stroke: rgb(183, 183, 183);"></path>
    <path d="M 162.076 149.738 C 162.076 149.738 162.583 85.087 162.4 84.965 L 223.691 150.787 C 223.806 151.334 162.076 149.738 162.076 149.738 Z" style="fill: rgb(255, 255, 255); stroke: rgb(183, 183, 183);"></path>
    <rect x="60.571" y="88.317" width="32.796" height="32.796" style="fill: rgb(36, 22, 142); stroke: rgb(0, 96, 248); stroke-width: 2px;"></rect>
    <rect x="60.689" y="125.241" width="32.796" height="32.796" style="fill: rgb(36, 22, 142); stroke: rgb(0, 96, 248); stroke-width: 2px;"></rect>
    <rect x="60.512" y="161.652" width="32.796" height="32.796" style="fill: rgb(36, 22, 142); stroke: rgb(0, 96, 248); stroke-width: 2px;"></rect>
    <rect x="60.63" y="198.576" width="32.796" height="32.796" style="fill: rgb(36, 22, 142); stroke: rgb(0, 96, 248); stroke-width: 2px;"></rect>
    <rect x="60.684" y="235.352" width="32.796" height="32.796" style="fill: rgb(36, 22, 142); stroke: rgb(0, 96, 248); stroke-width: 2px;"></rect>
    <path d="M 60.802 272.276 L 93.598 272.276 L 93.598 293.5 C 87.925 293.166 79.978 292.911 74.346 290.69 C 69.588 288.815 64.376 285.064 60.802 281.816 Z" style="fill: rgb(36, 22, 142); stroke: rgb(0, 96, 248); stroke-width: 2px;"></path>
    <rect x="186.938" y="154.556" width="32.796" height="32.796" style="fill: rgb(36, 22, 142); stroke: rgb(0, 96, 248); stroke-width: 2px;"></rect>
    <rect x="186.938" y="192" width="32.796" height="32.796" style="fill: rgb(36, 22, 142); stroke: rgb(0, 96, 248); stroke-width: 2px;"></rect>
    <rect x="186.665" y="229.449" width="32.796" height="32.796" style="fill: rgb(36, 22, 142); stroke: rgb(0, 96, 248); stroke-width: 2px;"></rect>
    <path d="M 186.507 266.767 L 219.303 266.767 L 219.303 280.248 C 217.389 281.888 214.844 282.888 212.66 283.415 C 210.505 283.934 208.647 283.962 206.218 283.415 C 203.152 282.725 199.315 279.405 195.676 278.73 C 192.568 278.152 190.431 278.28 186.507 278.96 Z" style="fill: rgb(36, 22, 142); stroke: rgb(0, 96, 248); stroke-width: 2px;"></path>
  </g>
  <g transform="matrix(1, 0, 0, 1, 91.663658, 91.376701)">
    <g transform="matrix(1, 0, 0, 1, -254.356705, -197.75061)">
      <path d="M 304.791 204.571 C 306.716 205.307 326.243 214.091 327.084 215.233 C 327.316 215.548 342.466 232.483 342.925 233.883 C 344.17 235.366 349.529 242.114 350.07 243.757 C 350.67 245.585 352.584 255.056 352.839 256.773 C 353.347 260.201 353.761 264.947 353.115 267.851 C 353.087 267.978 352.525 274.074 351.731 275.882 C 350.972 277.608 346.186 281.987 344.673 282.662 C 344.672 282.663 336.818 289.468 333.038 290.974 C 330.095 292.147 326.851 292.473 324.296 292.177 C 320.65 292.984 313.929 294.094 310.404 293.814 C 308.616 294.005 306.356 294.023 304.872 293.825 C 303.225 293.605 302.311 293.271 300.718 292.44 C 299.785 291.954 287.052 287.628 285.129 286.544 C 282.94 285.311 279.971 283.166 278.621 281.143 C 277.44 279.375 276.756 277.193 276.959 275.328 C 277.163 273.453 278.545 271.104 279.867 269.928 C 281.058 268.867 282.81 268.352 284.298 268.266 C 285.765 268.181 287.281 268.667 288.729 269.374 C 290.335 270.158 308.094 276.634 310.793 277.899 C 313.765 277.221 317.089 276.801 319.191 276.574 C 321.882 276.283 323.946 276.276 325.779 276.832 C 325.989 276.759 331.069 272.061 333.315 270.758 C 333.732 270.517 336.129 258.266 336.301 254.048 C 335.706 251.99 333.79 248.364 333.177 247.634 C 332.46 246.782 313.974 224.923 308.945 224.234 C 304.958 223.688 302.732 222.294 300.36 220.91 C 298.273 219.693 296.368 218.319 295.236 216.618 C 294.169 215.013 293.387 212.882 293.575 211.079 C 293.767 209.234 295.162 206.856 296.483 205.68 C 297.674 204.619 299.48 204.181 300.914 204.018 C 302.243 203.866 303.332 204.015 304.791 204.571 Z" style="stroke-width: 6px; fill: rgb(255, 255, 255); stroke: rgb(255, 255, 255); transform-box: fill-box; transform-origin: 50% 50%;" transform="matrix(0.997564, -0.069756, 0.069756, 0.997564, 0, -0.000001)"></path>
      <path d="M 291.027 278.818 C 290.447 292.074 289.806 308.136 287.767 314.68 C 286.705 318.086 285.449 319.404 283.808 320.501 C 282.354 321.474 280.362 321.785 278.685 321.433 C 276.864 321.05 274.475 319.794 273.329 317.94 C 271.991 315.775 271.966 313.017 271.932 308.625 C 271.876 301.477 274.602 288.962 275.192 276.955 C 275.893 262.699 274.066 235.346 275.192 228.053 C 274.45 222.147 273.615 209.678 274.26 205.233 C 274.607 202.85 275.047 201.924 276.124 200.808 C 277.253 199.636 279.163 198.577 281.014 198.479 C 283.131 198.367 286.733 199.489 288.233 200.808 C 289.482 201.906 289.579 202.683 290.096 205.233 C 291.168 210.529 293.242 229.253 291.958 235.039 C 291.853 235.516 291.728 235.955 291.587 236.36 C 291.937 248.078 291.536 267.204 291.027 278.818 Z" style="stroke: rgb(255, 255, 255); stroke-width: 8px; fill: rgb(255, 255, 255); transform-box: fill-box; transform-origin: 50% 50%;" transform="matrix(0.97437, 0.22495, -0.22495, 0.97437, 0.000002, 0.000002)"></path>
      <path d="M 263.441 316.098 C 265.132 315.862 267.023 316.113 268.426 316.652 C 269.702 317.143 270.825 317.746 271.611 319.006 C 272.619 320.624 271.677 321.937 273.753 321.176 C 275.225 320.636 274.571 324.494 273.273 325.831 C 272.156 326.98 271.041 328.171 269.711 328.58 C 268.452 328.967 266.96 328.365 264.651 327.829 C 259.746 326.691 257.819 332.588 256.656 331.468 C 255.785 330.63 255.559 329.825 255.272 328.699 C 254.924 327.335 254.615 325.374 254.994 323.714 C 255.407 321.912 256.482 319.584 257.902 318.314 C 259.307 317.057 261.628 316.353 263.441 316.098 Z" style="stroke-width: 6px; stroke: rgb(255, 255, 255); fill: rgb(255, 255, 255); transform-box: fill-box; transform-origin: 50% 50%;" transform="matrix(-0.29237, 0.956305, -0.956305, -0.29237, -0.000001, 0.000011)"></path>
    </g>
    <g transform="matrix(0.505789, 0, 0, 0.505789, -110.076889, -1.196091)">
      <path d="M 317.348 15.85 C 321.155 17.305 359.762 34.671 361.424 36.93 C 361.882 37.552 391.835 71.035 392.743 73.802 C 395.205 76.734 405.8 90.075 406.869 93.325 C 408.056 96.939 411.84 115.663 412.344 119.059 C 413.349 125.835 414.168 135.219 412.891 140.96 C 412.835 141.212 411.724 153.264 410.154 156.838 C 408.654 160.252 399.19 168.91 396.2 170.243 C 396.197 170.246 380.67 183.699 373.196 186.678 C 367.377 188.997 360.963 189.641 355.911 189.056 C 348.704 190.651 335.416 192.845 328.446 192.292 C 324.911 192.669 320.442 192.705 317.508 192.314 C 314.253 191.879 312.445 191.218 309.296 189.576 C 307.45 188.614 282.277 180.062 278.474 177.918 C 274.147 175.48 268.276 171.24 265.607 167.241 C 263.273 163.745 261.92 159.43 262.322 155.743 C 262.725 152.036 265.458 147.393 268.071 145.067 C 270.425 142.97 273.89 141.952 276.831 141.781 C 279.731 141.613 282.73 142.574 285.591 143.972 C 288.767 145.522 323.879 158.325 329.215 160.826 C 335.091 159.486 341.662 158.656 345.819 158.207 C 351.14 157.632 355.22 157.617 358.843 158.718 C 359.26 158.573 369.302 149.285 373.743 146.709 C 374.567 146.231 379.306 122.01 379.647 113.67 C 378.47 109.602 374.682 102.432 373.47 100.99 C 372.052 99.304 335.504 56.088 325.561 54.725 C 317.679 53.645 313.277 50.89 308.587 48.154 C 304.462 45.748 300.695 43.031 298.458 39.668 C 296.348 36.494 294.802 32.281 295.173 28.717 C 295.553 25.068 298.31 20.367 300.922 18.041 C 303.277 15.944 306.848 15.078 309.683 14.755 C 312.311 14.456 314.464 14.749 317.348 15.85 Z" style="stroke-opacity: 0; stroke-width: 0px; stroke: rgb(129, 151, 57); fill: rgba(48, 164, 209, 0.44); transform-box: fill-box; transform-origin: 50% 50%;" transform="matrix(0.997564, -0.069756, 0.069756, 0.997564, 0, 0.000001)"></path>
      <path stroke-width="0" d="M 290.135 162.644 C 288.988 188.852 287.721 220.608 283.69 233.546 C 281.591 240.281 279.108 242.886 275.863 245.056 C 272.987 246.979 269.05 247.595 265.734 246.898 C 262.134 246.141 257.41 243.657 255.145 239.992 C 252.5 235.712 252.45 230.258 252.382 221.576 C 252.272 207.443 257.662 182.7 258.828 158.96 C 260.213 130.775 256.601 76.694 258.828 62.276 C 257.36 50.599 255.709 25.947 256.986 17.157 C 257.671 12.446 258.542 10.616 260.67 8.409 C 262.902 6.093 266.679 3.998 270.338 3.805 C 274.525 3.584 281.645 5.801 284.611 8.409 C 287.081 10.581 287.273 12.116 288.294 17.157 C 290.415 27.629 294.515 64.648 291.977 76.088 C 291.768 77.031 291.521 77.899 291.242 78.7 C 291.934 101.867 291.141 139.681 290.135 162.644 Z" style="stroke-width: 2px; fill: rgb(147, 102, 33); stroke: rgb(100, 62, 28); transform-box: fill-box; transform-origin: 50% 50%;" transform="matrix(0.97437, 0.22495, -0.22495, 0.97437, -0.000001, 0)"></path>
      <path d="M 235.595 236.351 C 238.938 235.883 242.677 236.38 245.45 237.446 C 247.973 238.417 250.193 239.609 251.747 242.1 C 253.74 245.298 251.879 247.894 255.983 246.39 C 258.894 245.323 257.601 252.951 255.033 255.593 C 252.825 257.866 250.621 260.22 247.991 261.029 C 245.503 261.794 242.553 260.603 237.988 259.544 C 228.289 257.294 224.479 268.953 222.18 266.739 C 220.459 265.081 220.011 263.491 219.443 261.264 C 218.755 258.568 218.144 254.69 218.895 251.408 C 219.711 247.845 221.836 243.243 224.644 240.732 C 227.422 238.247 232.011 236.854 235.595 236.351 Z" style="stroke: rgb(129, 151, 57); fill: url(#gradient-1-0); stroke-width: 0px; stroke-opacity: 0; transform-box: fill-box; transform-origin: 50% 50%;" transform="matrix(-0.29237, 0.956305, -0.956305, -0.29237, 0.000029, -0.000008)" stroke="rgb(255,0,0)"></path>
    </g>
  </g>
</svg>