<svg viewBox="0 0 381.766 436.999" xmlns="http://www.w3.org/2000/svg" xmlns:xlink="http://www.w3.org/1999/xlink" xmlns:bx="https://boxy-svg.com">
  <defs>
    <linearGradient id="gradient-1">
      <stop offset="0" style="stop-color: rgb(255, 0, 0);"></stop>
      <stop offset="0.136" style="stop-color: rgb(255, 222, 0);"></stop>
      <stop offset="0.271" style="stop-color: rgb(99, 255, 0);"></stop>
      <stop offset="0.408" style="stop-color: rgb(0, 255, 239);"></stop>
      <stop offset="0.543" style="stop-color: rgb(25, 0, 255);"></stop>
      <stop offset="0.679" style="stop-color: rgb(255, 0, 239);"></stop>
      <stop offset="0.815" style="stop-color: rgb(255, 0, 0);"></stop>
      <stop offset="0.951" style="stop-color: rgb(255, 239, 0);"></stop>
    </linearGradient>
    <linearGradient id="gradient-1-0" gradientUnits="userSpaceOnUse" x1="240.357" y1="308.877" x2="240.357" y2="345.489" gradientTransform="matrix(1, 0.000001, -0.000001, 1, 252.474039, 16.20551)" xlink:href="#gradient-1"></linearGradient>
    <radialGradient gradientUnits="userSpaceOnUse" cx="396.584" cy="159.827" r="13.352" id="gradient-0" gradientTransform="matrix(0.76301, -0.000001, 0.000004, 11.380972, 93.980072, -711.74176)" spreadMethod="reflect">
      <stop offset="0" style="stop-color: rgb(206, 206, 206);"></stop>
      <stop offset="1" style="stop-color: rgb(125, 125, 125);"></stop>
    </radialGradient>
    <radialGradient gradientUnits="userSpaceOnUse" cx="392.435" cy="211.184" r="13.224" id="gradient-2" spreadMethod="reflect" gradientTransform="matrix(0.55368, -0.00907, 0.086348, 5.271037, -635.799805, -1532.493042)">
      <stop offset="0" style="stop-color: rgb(232, 232, 232);"></stop>
      <stop offset="1" style="stop-color: rgb(197, 194, 194);"></stop>
    </radialGradient>
    <radialGradient gradientUnits="userSpaceOnUse" cx="393.014" cy="211.178" r="13.224" id="gradient-3" spreadMethod="reflect" gradientTransform="matrix(0.463576, 0.014618, 0.094251, 0.782233, -602.16788, -561.795715)">
      <stop offset="0" style="stop-color: rgb(255, 255, 255);"></stop>
      <stop offset="1" style="stop-color: rgb(232, 228, 228);"></stop>
    </radialGradient>
    <radialGradient gradientUnits="userSpaceOnUse" cx="392.435" cy="211.184" r="13.224" id="gradient-4" spreadMethod="reflect" gradientTransform="matrix(0.553496, -0.014407, 0.123131, 1.806778, -643.620728, -754.812317)">
      <stop offset="0" style="stop-color: rgb(95, 95, 95);"></stop>
      <stop offset="1" style="stop-color: rgb(72, 72, 72);"></stop>
    </radialGradient>
    <radialGradient gradientUnits="userSpaceOnUse" cx="393.014" cy="211.178" r="13.224" id="gradient-5" spreadMethod="reflect" gradientTransform="matrix(0.463576, 0.014618, 0.094251, 0.782233, -602.159485, -537.94458)">
      <stop offset="0" style="stop-color: rgb(255, 255, 255);"></stop>
      <stop offset="1" style="stop-color: rgb(232, 228, 228);"></stop>
    </radialGradient>
    <radialGradient gradientUnits="userSpaceOnUse" cx="392.435" cy="211.184" r="13.224" id="gradient-6" spreadMethod="reflect" gradientTransform="matrix(0.553496, -0.087733, 0.123131, 11.002619, -643.568909, -2589.274658)">
      <stop offset="0" style="stop-color: rgb(95, 95, 95);"></stop>
      <stop offset="1" style="stop-color: rgb(72, 72, 72);"></stop>
    </radialGradient>
    <radialGradient gradientUnits="userSpaceOnUse" cx="393.014" cy="211.178" r="13.224" id="gradient-7" spreadMethod="reflect" gradientTransform="matrix(0.463576, 0.054383, 0.094251, 2.910185, -602.271179, -866.537048)">
      <stop offset="0" style="stop-color: rgb(255, 255, 255);"></stop>
      <stop offset="1" style="stop-color: rgb(232, 228, 228);"></stop>
    </radialGradient>
    <radialGradient gradientUnits="userSpaceOnUse" cx="392.435" cy="211.184" r="13.224" id="gradient-8" spreadMethod="reflect" gradientTransform="matrix(0.553496, -0.014407, 0.123131, 1.806778, -643.649841, -590.413513)">
      <stop offset="0" style="stop-color: rgb(95, 95, 95);"></stop>
      <stop offset="1" style="stop-color: rgb(72, 72, 72);"></stop>
    </radialGradient>
    <radialGradient gradientUnits="userSpaceOnUse" cx="393.014" cy="211.178" r="13.224" id="gradient-9" spreadMethod="reflect" gradientTransform="matrix(0.463576, 0.014618, 0.094251, 0.782233, -602.142517, -373.278137)">
      <stop offset="0" style="stop-color: rgb(255, 255, 255);"></stop>
      <stop offset="1" style="stop-color: rgb(232, 228, 228);"></stop>
    </radialGradient>
    <radialGradient gradientUnits="userSpaceOnUse" cx="392.435" cy="211.184" r="13.224" id="gradient-10" spreadMethod="reflect" gradientTransform="matrix(0.350364, -0.011037, 0.077942, 1.384177, -553.175659, -480.632935)">
      <stop offset="0" style="stop-color: rgb(95, 95, 95);"></stop>
      <stop offset="1" style="stop-color: rgb(72, 72, 72);"></stop>
    </radialGradient>
    <radialGradient gradientUnits="userSpaceOnUse" cx="393.014" cy="211.178" r="13.224" id="gradient-11" spreadMethod="reflect" gradientTransform="matrix(0.293446, 0.021964, 0.059661, 1.175346, -526.977173, -439.113068)">
      <stop offset="0" style="stop-color: rgb(255, 255, 255);"></stop>
      <stop offset="1" style="stop-color: rgb(232, 228, 228);"></stop>
    </radialGradient>
    <radialGradient gradientUnits="userSpaceOnUse" cx="392.435" cy="211.184" r="13.224" id="gradient-12" spreadMethod="reflect" gradientTransform="matrix(0.187895, -0.00907, 0.029303, 5.271037, 297.267172, -868.042532)">
      <stop offset="0" style="stop-color: rgb(232, 232, 232);"></stop>
      <stop offset="1" style="stop-color: rgb(197, 194, 194);"></stop>
    </radialGradient>
  </defs>
  <rect x="36.832" y="38.911" width="280.847" height="370.166" style="fill: rgb(255, 255, 255); stroke-opacity: 0.52; stroke-width: 3px; stroke: rgb(219, 213, 213); transform-box: fill-box; transform-origin: 50% 50%;" transform="matrix(0.990268, -0.139173, 0.139173, 0.990268, -12.440048, -21.169068)"></rect>
  <g transform="matrix(0.990268, -0.139173, 0.139173, 0.990268, -408.94281, -23.010715)" style="transform-origin: 574.585px 227.491px;">
    <path d="M 573.333 104.759 C 577.14 106.214 615.747 123.58 617.409 125.839 C 617.867 126.461 647.82 159.944 648.728 162.711 C 651.19 165.643 661.785 178.984 662.854 182.234 C 664.041 185.848 667.825 204.572 668.329 207.968 C 669.334 214.744 670.153 224.128 668.876 229.869 C 668.82 230.121 667.709 242.173 666.139 245.747 C 664.639 249.161 655.175 257.819 652.185 259.152 C 652.182 259.155 636.655 272.608 629.181 275.587 C 623.362 277.906 616.948 278.55 611.896 277.965 C 604.689 279.56 591.401 281.754 584.431 281.201 C 580.896 281.578 576.427 281.614 573.493 281.223 C 570.238 280.788 568.43 280.127 565.281 278.485 C 563.435 277.523 538.262 268.971 534.459 266.827 C 530.132 264.389 524.261 260.149 521.592 256.15 C 519.258 252.654 517.905 248.339 518.307 244.652 C 518.71 240.945 521.443 236.302 524.056 233.976 C 526.41 231.879 529.875 230.861 532.816 230.69 C 535.716 230.522 538.715 231.483 541.576 232.881 C 544.752 234.431 579.864 247.234 585.2 249.735 C 591.076 248.395 597.647 247.565 601.804 247.116 C 607.125 246.541 611.205 246.526 614.828 247.627 C 615.245 247.482 625.287 238.194 629.728 235.618 C 630.552 235.14 635.291 210.919 635.632 202.579 C 634.455 198.511 630.667 191.341 629.455 189.899 C 628.037 188.213 591.489 144.997 581.546 143.634 C 573.664 142.554 569.262 139.799 564.572 137.063 C 560.447 134.657 556.68 131.94 554.443 128.577 C 552.333 125.403 550.787 121.19 551.158 117.626 C 551.538 113.977 554.295 109.276 556.907 106.95 C 559.262 104.853 562.833 103.987 565.668 103.664 C 568.296 103.365 570.449 103.658 573.333 104.759 Z" style="stroke-opacity: 0; stroke-width: 0px; stroke: rgb(129, 151, 57); fill: rgba(48, 164, 209, 0.44); transform-box: fill-box; transform-origin: 50% 50%;" transform="matrix(0.997564, -0.069756, 0.069756, 0.997564, 0.000001, -0.000001)"></path>
    <path stroke-width="0" d="M 546.12 251.554 C 544.973 277.762 543.706 309.518 539.675 322.456 C 537.576 329.191 535.093 331.796 531.848 333.966 C 528.972 335.889 525.035 336.505 521.719 335.808 C 518.119 335.051 513.395 332.567 511.13 328.902 C 508.485 324.622 508.435 319.168 508.367 310.486 C 508.257 296.353 513.647 271.61 514.813 247.87 C 516.198 219.685 512.586 165.603 514.813 151.185 C 513.345 139.508 511.694 114.856 512.971 106.066 C 513.656 101.355 514.527 99.525 516.655 97.318 C 518.887 95.002 522.664 92.907 526.323 92.714 C 530.51 92.493 537.63 94.71 540.596 97.318 C 543.066 99.49 543.258 101.025 544.279 106.066 C 546.4 116.538 550.5 153.557 547.962 164.997 C 547.753 165.94 547.506 166.808 547.227 167.609 C 547.919 190.776 547.126 228.591 546.12 251.554 Z" style="stroke-width: 2px; fill: rgb(147, 102, 33); stroke: rgb(100, 62, 28); transform-box: fill-box; transform-origin: 50% 50%;" transform="matrix(0.97437, 0.22495, -0.22495, 0.97437, -0.000001, 0.000012)"></path>
    <path stroke="rgb(255,0,0)" d="M 491.58 325.26 C 494.923 324.792 498.662 325.289 501.435 326.355 C 503.958 327.326 506.178 328.518 507.732 331.009 C 509.725 334.207 507.864 336.803 511.968 335.299 C 514.879 334.232 513.586 341.86 511.018 344.502 C 508.81 346.775 506.606 349.129 503.976 349.938 C 501.488 350.703 498.538 349.512 493.973 348.453 C 484.274 346.203 480.464 357.862 478.165 355.648 C 476.444 353.99 475.996 352.4 475.428 350.173 C 474.74 347.477 474.129 343.599 474.88 340.317 C 475.696 336.754 477.821 332.152 480.629 329.641 C 483.407 327.156 487.996 325.763 491.58 325.26 Z" style="stroke: rgb(129, 151, 57); fill: url(#gradient-1-0); stroke-width: 0px; stroke-opacity: 0; transform-box: fill-box; transform-origin: 50% 50%;" transform="matrix(-0.29237, 0.956305, -0.956305, -0.29237, 0.000016, -0.000048)"></path>
  </g>
  <g style="transform-origin: 391.912px 337.598px;" transform="matrix(0.866025, 0.5, -0.5, 0.866025, -102.156181, -40.827274)">
    <path d="M 396.409 453.582 L 409.761 495.019 L 383.057 495.019 L 396.409 453.582 Z" style="stroke: rgb(0, 0, 0); stroke-width: 0px; stroke-opacity: 0; fill: url(#gradient-0); transform-box: fill-box; transform-origin: 50% 50%;" transform="matrix(-1, 0, 0, -1, 0, 0)" bx:shape="triangle 383.057 453.582 26.704 41.437 0.5 0 1@b8bfc8a5"></path>
    <rect x="-409.501" y="-454.078" width="26.448" height="61.948" style="fill: url(#gradient-2); transform-box: fill-box; transform-origin: 50% 50%;" transform="matrix(-1, 0, 0, -1, 792.554015, 846.208006)"></rect>
    <rect x="-409.626" y="-389.616" width="26.448" height="21.281" style="fill: url(#gradient-4); transform-box: fill-box; transform-origin: 50% 50%;" transform="matrix(-1, 0, 0, -1, 792.804015, 757.950992)"></rect>
    <rect x="-409.553" y="-368.427" width="26.448" height="2.813" style="fill: url(#gradient-5); transform-box: fill-box; transform-origin: 50% 50%;" transform="matrix(-1, 0, 0, -1, 792.658019, 734.04101)"></rect>
    <rect x="-409.574" y="-365.363" width="26.448" height="129.594" style="fill: url(#gradient-6); transform-box: fill-box; transform-origin: 50% 50%;" transform="matrix(-1, 0, 0, -1, 792.700011, 601.132019)"></rect>
    <rect x="-409.665" y="-235.872" width="26.448" height="10.465" style="fill: url(#gradient-7); transform-box: fill-box; transform-origin: 50% 50%;" transform="matrix(-1, 0, 0, -1, 792.882018, 461.27899)"></rect>
    <rect x="-409.655" y="-225.217" width="26.448" height="21.281" style="fill: url(#gradient-8); transform-box: fill-box; transform-origin: 50% 50%;" transform="matrix(-1, 0, 0, -1, 792.861999, 429.152987)"></rect>
    <rect x="-409.536" y="-203.76" width="26.448" height="2.813" style="fill: url(#gradient-9); transform-box: fill-box; transform-origin: 50% 50%;" transform="matrix(-1, 0, 0, -1, 792.624022, 404.706995)"></rect>
    <rect x="-405.056" y="-200.855" width="16.741" height="16.303" style="fill: url(#gradient-10); transform-box: fill-box; transform-origin: 50% 50%;" transform="matrix(-1, 0, 0, -1, 793.370986, 385.406987)"></rect>
    <rect x="-405.056" y="-184.404" width="16.742" height="4.227" style="fill: url(#gradient-11); transform-box: fill-box; transform-origin: 50% 50%;" transform="matrix(-1, 0, 0, -1, 793.369997, 364.581019)"></rect>
    <rect x="374.063" y="210.372" width="8.975" height="61.948" style="fill: url(#gradient-12);"></rect>
  </g>
</svg>