<svg viewBox="0 0 343.062 442.092" xmlns="http://www.w3.org/2000/svg" xmlns:xlink="http://www.w3.org/1999/xlink">
  <defs>
    <linearGradient id="gradient-1">
      <stop offset="0" style="stop-color: rgb(255, 0, 0);"></stop>
      <stop offset="0.136" style="stop-color: rgb(255, 222, 0);"></stop>
      <stop offset="0.271" style="stop-color: rgb(99, 255, 0);"></stop>
      <stop offset="0.408" style="stop-color: rgb(0, 255, 239);"></stop>
      <stop offset="0.543" style="stop-color: rgb(25, 0, 255);"></stop>
      <stop offset="0.679" style="stop-color: rgb(255, 0, 239);"></stop>
      <stop offset="0.815" style="stop-color: rgb(255, 0, 0);"></stop>
      <stop offset="0.951" style="stop-color: rgb(255, 239, 0);"></stop>
    </linearGradient>
    <linearGradient id="gradient-1-0" gradientUnits="userSpaceOnUse" x1="240.357" y1="308.877" x2="240.357" y2="345.489" gradientTransform="matrix(1, 0.000001, -0.000001, 1, 34.128054, 142.201696)" xlink:href="#gradient-1"></linearGradient>
  </defs>
  <g transform="matrix(1, 0, 0, 1, -67, -54)">
    <path d="M 67.935 55.248 L 289.055 55.248 C 290.954 57.118 305.603 125.756 309.575 129.607 C 314.936 134.808 316.54 110.284 323.387 119.018 C 331.965 129.961 338.735 108.455 352.686 122.046 C 361.254 130.393 374.053 148.216 388.46 157.916 L 387.456 431.609 C 383.556 431.884 379.699 432.773 375.744 434.029 C 367.248 436.729 358.809 446.732 350.182 449.45 C 342.141 451.983 332.251 449.029 325.782 450.736 C 320.678 452.081 315.909 454.681 313.583 457.161 C 311.933 458.918 313.47 461.113 311.259 462.943 C 306.918 466.534 291.875 470.958 281.63 472.581 C 271.171 474.239 259.584 475.435 249.098 472.581 C 238.258 469.632 228.149 458.672 217.727 454.59 C 208.014 450.786 194.463 452.033 188.678 448.165 C 184.748 445.536 185.379 440.754 182.289 437.884 C 178.724 434.575 175.094 431.874 167.765 430.174 C 155.62 427.357 128.752 427.211 110.832 428.889 C 96.453 430.234 78.941 434.078 68.279 437.489 L 67.935 55.248 Z M 95.601 66.388 C 88.79 66.388 83.268 71.91 83.268 78.721 C 83.268 85.532 88.79 91.054 95.601 91.054 C 102.412 91.054 107.934 85.532 107.934 78.721 C 107.934 71.91 102.412 66.388 95.601 66.388 Z M 95.798 99.734 C 88.987 99.734 83.465 105.256 83.465 112.067 C 83.465 118.878 88.987 124.4 95.798 124.4 C 102.609 124.4 108.131 118.878 108.131 112.067 C 108.131 105.256 102.609 99.734 95.798 99.734 Z M 96.67 132.068 C 89.859 132.068 84.337 137.59 84.337 144.401 C 84.337 151.212 89.859 156.734 96.67 156.734 C 103.481 156.734 109.003 151.212 109.003 144.401 C 109.003 137.59 103.481 132.068 96.67 132.068 Z M 96.867 165.414 C 90.056 165.414 84.534 170.936 84.534 177.747 C 84.534 184.558 90.056 190.08 96.867 190.08 C 103.678 190.08 109.2 184.558 109.2 177.747 C 109.2 170.936 103.678 165.414 96.867 165.414 Z M 96.824 197.312 C 90.013 197.312 84.491 202.834 84.491 209.645 C 84.491 216.456 90.013 221.978 96.824 221.978 C 103.635 221.978 109.157 216.456 109.157 209.645 C 109.157 202.834 103.635 197.312 96.824 197.312 Z M 97.021 230.658 C 90.21 230.658 84.688 236.18 84.688 242.991 C 84.688 249.802 90.21 255.324 97.021 255.324 C 103.832 255.324 109.354 249.802 109.354 242.991 C 109.354 236.18 103.832 230.658 97.021 230.658 Z M 97.893 262.992 C 91.082 262.992 85.56 268.514 85.56 275.325 C 85.56 282.136 91.082 287.658 97.893 287.658 C 104.704 287.658 110.226 282.136 110.226 275.325 C 110.226 268.514 104.704 262.992 97.893 262.992 Z M 98.09 296.338 C 91.279 296.338 85.757 301.86 85.757 308.671 C 85.757 315.482 91.279 321.004 98.09 321.004 C 104.901 321.004 110.423 315.482 110.423 308.671 C 110.423 301.86 104.901 296.338 98.09 296.338 Z M 98.968 329.59 C 92.157 329.59 86.635 335.112 86.635 341.923 C 86.635 348.734 92.157 354.256 98.968 354.256 C 105.779 354.256 111.301 348.734 111.301 341.923 C 111.301 335.112 105.779 329.59 98.968 329.59 Z M 99.165 362.936 C 92.354 362.936 86.832 368.458 86.832 375.269 C 86.832 382.08 92.354 387.602 99.165 387.602 C 105.976 387.602 111.498 382.08 111.498 375.269 C 111.498 368.458 105.976 362.936 99.165 362.936 Z M 100.037 395.27 C 93.226 395.27 87.704 400.792 87.704 407.603 C 87.704 414.414 93.226 419.936 100.037 419.936 C 106.848 419.936 112.37 414.414 112.37 407.603 C 112.37 400.792 106.848 395.27 100.037 395.27 Z" style="stroke: rgb(0, 0, 0); fill: rgb(251, 251, 251);"></path>
    <text style="fill: rgb(166, 166, 166); font-family: Consolas; font-size: 28px; white-space: pre;" transform="matrix(1, 0, 0, 1, 0, 11)"><tspan x="124.405" y="75.989">reset;</tspan><tspan x="124.405" dy="1em">​</tspan><tspan>~ Set the h</tspan><tspan x="124.405" dy="1em">​</tspan><tspan>~mode logo;</tspan><tspan x="124.405" dy="1em">​</tspan><tspan>~ path.start star</tspan><tspan x="124.405" dy="1em">​</tspan><tspan>path.start;</tspan><tspan x="124.405" dy="1em">​</tspan><tspan>forward 200;</tspan><tspan x="124.405" dy="1em">​</tspan><tspan>left 90;</tspan><tspan x="124.405" dy="1em">​</tspan><tspan>forward 100;</tspan><tspan x="124.405" dy="1em">​</tspan><tspan>~ path.end ends a</tspan><tspan x="124.405" dy="1em">​</tspan><tspan>path.end;</tspan><tspan x="124.405" dy="1em">​</tspan><tspan>~ Go to the start</tspan><tspan x="124.405" dy="1em">​</tspan><tspan>home;</tspan><tspan x="124.405" dy="1em">​</tspan><tspan>~ Draw another li</tspan><tspan x="124.405" dy="1em">​</tspan><tspan>    .start;</tspan><tspan x="124.405" dy="1em">​</tspan></text>
    <path d="M 288.298 54.928 L 388.493 159.224 L 288.125 159.462 Z M 318.15 142.278 C 318.387 135.471 313.062 129.76 306.255 129.522 C 299.447 129.284 293.736 134.61 293.499 141.417 C 293.261 148.224 298.587 153.935 305.394 154.173 C 312.201 154.411 317.912 149.085 318.15 142.278 Z M 351.482 143.245 C 351.72 136.438 346.394 130.727 339.587 130.489 C 332.78 130.251 327.069 135.577 326.831 142.384 C 326.594 149.191 331.919 154.902 338.726 155.14 C 345.533 155.378 351.244 150.052 351.482 143.245 Z M 381.582 152.171 L 364.694 134.592 C 363.195 136.555 362.268 138.985 362.176 141.642 C 361.938 148.448 367.264 154.16 374.071 154.398 C 376.858 154.495 379.463 153.659 381.582 152.171 Z" style="stroke: rgb(0, 0, 0); fill: rgb(251, 251, 251);"></path>
  </g>
  <g transform="matrix(1, 0, 0, 1, -111.934799, -44.951096)">
    <path d="M 354.987 230.755 C 358.794 232.21 397.401 249.576 399.063 251.835 C 399.521 252.457 429.474 285.94 430.382 288.707 C 432.844 291.639 443.439 304.98 444.508 308.23 C 445.695 311.844 449.479 330.568 449.983 333.964 C 450.988 340.74 451.807 350.124 450.53 355.865 C 450.474 356.117 449.363 368.169 447.793 371.743 C 446.293 375.157 436.829 383.815 433.839 385.148 C 433.836 385.151 418.309 398.604 410.835 401.583 C 405.016 403.902 398.602 404.546 393.55 403.961 C 386.343 405.556 373.055 407.75 366.085 407.197 C 362.55 407.574 358.081 407.61 355.147 407.219 C 351.892 406.784 350.084 406.123 346.935 404.481 C 345.089 403.519 319.916 394.967 316.113 392.823 C 311.786 390.385 305.915 386.145 303.246 382.146 C 300.912 378.65 299.559 374.335 299.961 370.648 C 300.364 366.941 303.097 362.298 305.71 359.972 C 308.064 357.875 311.529 356.857 314.47 356.686 C 317.37 356.518 320.369 357.479 323.23 358.877 C 326.406 360.427 361.518 373.23 366.854 375.731 C 372.73 374.391 379.301 373.561 383.458 373.112 C 388.779 372.537 392.859 372.522 396.482 373.623 C 396.899 373.478 406.941 364.19 411.382 361.614 C 412.206 361.136 416.945 336.915 417.286 328.575 C 416.109 324.507 412.321 317.337 411.109 315.895 C 409.691 314.209 373.143 270.993 363.2 269.63 C 355.318 268.55 350.916 265.795 346.226 263.059 C 342.101 260.653 338.334 257.936 336.097 254.573 C 333.987 251.399 332.441 247.186 332.812 243.622 C 333.192 239.973 335.949 235.272 338.561 232.946 C 340.916 230.849 344.487 229.983 347.322 229.66 C 349.95 229.361 352.103 229.654 354.987 230.755 Z" style="stroke-opacity: 0; stroke-width: 0px; stroke: rgb(129, 151, 57); fill: rgba(48, 164, 209, 0.44); transform-box: fill-box; transform-origin: 50% 50%;" transform="matrix(0.997564, -0.069756, 0.069756, 0.997564, 0, 0)"></path>
    <path stroke-width="0" d="M 327.774 377.55 C 326.627 403.758 325.36 435.514 321.329 448.452 C 319.23 455.187 316.747 457.792 313.502 459.962 C 310.626 461.885 306.689 462.501 303.373 461.804 C 299.773 461.047 295.049 458.563 292.784 454.898 C 290.139 450.618 290.089 445.164 290.021 436.482 C 289.911 422.349 295.301 397.606 296.467 373.866 C 297.852 345.681 294.24 291.599 296.467 277.181 C 294.999 265.504 293.348 240.852 294.625 232.062 C 295.31 227.351 296.181 225.521 298.309 223.314 C 300.541 220.998 304.318 218.903 307.977 218.71 C 312.164 218.489 319.284 220.706 322.25 223.314 C 324.72 225.486 324.912 227.021 325.933 232.062 C 328.054 242.534 332.154 279.553 329.616 290.993 C 329.407 291.936 329.16 292.804 328.881 293.605 C 329.573 316.772 328.78 354.587 327.774 377.55 Z" style="stroke-width: 2px; fill: rgb(147, 102, 33); stroke: rgb(100, 62, 28); transform-box: fill-box; transform-origin: 50% 50%;" transform="matrix(0.97437, 0.22495, -0.22495, 0.97437, 0.000001, 0)"></path>
    <path stroke="rgb(255,0,0)" d="M 273.234 451.256 C 276.577 450.788 280.316 451.285 283.089 452.351 C 285.612 453.322 287.832 454.514 289.386 457.005 C 291.379 460.203 289.518 462.799 293.622 461.295 C 296.533 460.228 295.24 467.856 292.672 470.498 C 290.464 472.771 288.26 475.125 285.63 475.934 C 283.142 476.699 280.192 475.508 275.627 474.449 C 265.928 472.199 262.118 483.858 259.819 481.644 C 258.098 479.986 257.65 478.396 257.082 476.169 C 256.394 473.473 255.783 469.595 256.534 466.313 C 257.35 462.75 259.475 458.148 262.283 455.637 C 265.061 453.152 269.65 451.759 273.234 451.256 Z" style="stroke: rgb(129, 151, 57); fill: url(#gradient-1-0); stroke-width: 0px; stroke-opacity: 0; transform-box: fill-box; transform-origin: 50% 50%;" transform="matrix(-0.29237, 0.956305, -0.956305, -0.29237, 0.000006, 0.000068)"></path>
  </g>
</svg>