<svg viewBox="0 0 205.904 272.962" xmlns="http://www.w3.org/2000/svg" xmlns:xlink="http://www.w3.org/1999/xlink" xmlns:bx="https://boxy-svg.com">
  <defs>
    <linearGradient id="gradient-1" bx:pinned="true">
      <stop offset="0" style="stop-color: rgb(255, 0, 0);"></stop>
      <stop offset="0.136" style="stop-color: rgb(255, 222, 0);"></stop>
      <stop offset="0.271" style="stop-color: rgb(99, 255, 0);"></stop>
      <stop offset="0.408" style="stop-color: rgb(0, 255, 239);"></stop>
      <stop offset="0.543" style="stop-color: rgb(25, 0, 255);"></stop>
      <stop offset="0.679" style="stop-color: rgb(255, 0, 239);"></stop>
      <stop offset="0.815" style="stop-color: rgb(255, 0, 0);"></stop>
      <stop offset="0.951" style="stop-color: rgb(255, 239, 0);"></stop>
    </linearGradient>
    <linearGradient id="gradient-1-0" gradientUnits="userSpaceOnUse" x1="240.357" y1="308.877" x2="240.357" y2="345.489" gradientTransform="matrix(1, 0.000001, -0.000001, 1, -221.144749, -75.068145)" xlink:href="#gradient-1"></linearGradient>
  </defs>
  <path d="M 99.714 13.485 C 103.521 14.94 142.128 32.306 143.79 34.565 C 144.248 35.187 174.201 68.67 175.109 71.437 C 177.571 74.369 188.166 87.71 189.235 90.96 C 190.422 94.574 194.206 113.298 194.71 116.694 C 195.715 123.47 196.534 132.854 195.257 138.595 C 195.201 138.847 194.09 150.899 192.52 154.473 C 191.02 157.887 181.556 166.545 178.566 167.878 C 178.563 167.881 163.036 181.334 155.562 184.313 C 149.743 186.632 143.329 187.276 138.277 186.691 C 131.07 188.286 117.782 190.48 110.812 189.927 C 107.277 190.304 102.808 190.34 99.874 189.949 C 96.619 189.514 94.811 188.853 91.662 187.211 C 89.816 186.249 64.643 177.697 60.84 175.553 C 56.513 173.115 50.642 168.875 47.973 164.876 C 45.639 161.38 44.286 157.065 44.688 153.378 C 45.091 149.671 47.824 145.028 50.437 142.702 C 52.791 140.605 56.256 139.587 59.197 139.416 C 62.097 139.248 65.096 140.209 67.957 141.607 C 71.133 143.157 106.245 155.96 111.581 158.461 C 117.457 157.121 124.028 156.291 128.185 155.842 C 133.506 155.267 137.586 155.252 141.209 156.353 C 141.626 156.208 151.668 146.92 156.109 144.344 C 156.933 143.866 161.672 119.645 162.013 111.305 C 160.836 107.237 157.048 100.067 155.836 98.625 C 154.418 96.939 117.87 53.723 107.927 52.36 C 100.045 51.28 95.643 48.525 90.953 45.789 C 86.828 43.383 83.061 40.666 80.824 37.303 C 78.714 34.129 77.168 29.916 77.539 26.352 C 77.919 22.703 80.676 18.002 83.288 15.676 C 85.643 13.579 89.214 12.713 92.049 12.39 C 94.677 12.091 96.83 12.384 99.714 13.485 Z" style="stroke-opacity: 0; stroke-width: 0px; stroke: rgb(129, 151, 57); fill: rgba(48, 164, 209, 0.44); transform-box: fill-box; transform-origin: 50% 50%;" transform="matrix(0.997564, -0.069756, 0.069756, 0.997564, 0, -0.000001)"></path>
  <path stroke-width="0" d="M 72.501 160.28 C 71.354 186.488 70.087 218.244 66.056 231.182 C 63.957 237.917 61.474 240.522 58.229 242.692 C 55.353 244.615 51.416 245.231 48.1 244.534 C 44.5 243.777 39.776 241.293 37.511 237.628 C 34.866 233.348 34.816 227.894 34.748 219.212 C 34.638 205.079 40.028 180.336 41.194 156.596 C 42.579 128.411 38.967 74.329 41.194 59.911 C 39.726 48.234 38.075 23.582 39.352 14.792 C 40.037 10.081 40.908 8.251 43.036 6.044 C 45.268 3.728 49.045 1.633 52.704 1.44 C 56.891 1.219 64.011 3.436 66.977 6.044 C 69.447 8.216 69.639 9.751 70.66 14.792 C 72.781 25.264 76.881 62.283 74.343 73.723 C 74.134 74.666 73.887 75.534 73.608 76.335 C 74.3 99.502 73.507 137.317 72.501 160.28 Z" style="stroke-width: 2px; fill: rgb(147, 102, 33); stroke: rgb(100, 62, 28); transform-box: fill-box; transform-origin: 50% 50%;" transform="matrix(0.97437, 0.22495, -0.22495, 0.97437, -0.000001, -0.000004)"></path>
  <path stroke="rgb(255,0,0)" d="M 17.961 233.986 C 21.304 233.518 25.043 234.015 27.816 235.081 C 30.339 236.052 32.559 237.244 34.113 239.735 C 36.106 242.933 34.245 245.529 38.349 244.025 C 41.26 242.958 39.967 250.586 37.399 253.228 C 35.191 255.501 32.987 257.855 30.357 258.664 C 27.869 259.429 24.919 258.238 20.354 257.179 C 10.655 254.929 6.845 266.588 4.546 264.374 C 2.825 262.716 2.377 261.126 1.809 258.899 C 1.121 256.203 0.51 252.325 1.261 249.043 C 2.077 245.48 4.202 240.878 7.01 238.367 C 9.788 235.882 14.377 234.489 17.961 233.986 Z" style="stroke: rgb(129, 151, 57); fill: url(#gradient-1-0); stroke-width: 0px; stroke-opacity: 0; transform-box: fill-box; transform-origin: 50% 50%;" transform="matrix(-0.29237, 0.956305, -0.956305, -0.29237, 0.000004, -0.000008)"></path>
</svg>